<?xml version="1.0" encoding="utf-8"?>
<!-- Generator: Adobe Illustrator 18.0.0, SVG Export Plug-In . SVG Version: 6.00 Build 0)  -->
<!DOCTYPE svg PUBLIC "-//W3C//DTD SVG 1.1//EN" "http://www.w3.org/Graphics/SVG/1.1/DTD/svg11.dtd" [
	<!ENTITY ns_flows "http://ns.adobe.com/Flows/1.0/">
	<!ENTITY ns_extend "http://ns.adobe.com/Extensibility/1.0/">
	<!ENTITY ns_ai "http://ns.adobe.com/AdobeIllustrator/10.0/">
	<!ENTITY ns_graphs "http://ns.adobe.com/Graphs/1.0/">
	<!ENTITY ns_vars "http://ns.adobe.com/Variables/1.0/">
	<!ENTITY ns_imrep "http://ns.adobe.com/ImageReplacement/1.0/">
	<!ENTITY ns_sfw "http://ns.adobe.com/SaveForWeb/1.0/">
	<!ENTITY ns_custom "http://ns.adobe.com/GenericCustomNamespace/1.0/">
	<!ENTITY ns_adobe_xpath "http://ns.adobe.com/XPath/1.0/">
]>
<svg version="1.1" id="logo" xmlns:x="&ns_extend;" xmlns:i="&ns_ai;" xmlns:graph="&ns_graphs;"
	 xmlns="http://www.w3.org/2000/svg" xmlns:xlink="http://www.w3.org/1999/xlink" xmlns:a="http://ns.adobe.com/AdobeSVGViewerExtensions/3.0/"
	 x="0px" y="0px" width="187.84px" height="77px" viewBox="0 0 187.84 77" style="enable-background:new 0 0 187.84 77;"
	 xml:space="preserve">
<style type="text/css">
	.st0{fill:#E17000;}
	.st1{fill:#FFFFFF;}
</style>
<metadata>
	<sfw  xmlns="&ns_sfw;">
		<slices></slices>
		<sliceSourceBounds  width="181.31" height="77" y="-161.7" x="179.44" bottomLeftOrigin="true"></sliceSourceBounds>
	</sfw>
</metadata>
<g>
	<rect x="0" y="0" class="st0" width="44" height="77"/>
	<path class="st1" d="M26.04,32.17c0,0.38-1.81,0.64-4.04,0.64c-2.23,0-4.04-0.25-4.04-0.64c0-0.39,1.8-0.63,4.04-0.63
		C24.23,31.54,26.04,31.78,26.04,32.17z"/>
	<path class="st1" d="M22,29.36c0.2,0,0.39,0,0.59,0.01c0.22-1.24,0.35-3.12,0.35-3.9c0.48-0.14,1.86-0.45,1.86,0.63
		c0,0.93-0.32,2.02-0.82,3.36c0.32,0.03,0.64,0.07,0.93,0.12c0.91-1.39,1.33-2.54,1.53-3.6c0.74-0.15,1.2,0.11,1.2,0.72
		c0,0.6-0.69,1.88-1.59,3.13c0.3,0.09,0.57,0.19,0.78,0.3c0.93-1.21,2.09-2.44,2.09-3.69c0-0.91-0.62-1.39-1.64-1.39
		c-0.29,0-0.64,0.12-0.92,0.21c-0.17-0.56-0.91-1.04-1.55-1.04c-0.66,0-1.34,0.4-2.14,0.57l-0.09-0.24
		c0.25-0.14,0.55-0.38,0.55-0.86c0-0.44-0.34-0.82-0.87-0.87l0.02-0.52l0.03-0.03l0.65,0.06v-0.7l-0.65,0.07l-0.03-0.03l0.07-0.64
		h-0.69l0.07,0.64l-0.03,0.03l-0.65-0.07v0.7l0.64-0.06l0.03,0.03l0.02,0.52c-0.53,0.06-0.87,0.44-0.87,0.87
		c0,0.48,0.3,0.72,0.54,0.86l-0.09,0.24c-0.8-0.17-1.48-0.57-2.15-0.57c-0.63,0-1.38,0.48-1.55,1.04c-0.28-0.09-0.63-0.21-0.92-0.21
		c-1.02,0-1.64,0.48-1.64,1.39c0,1.25,1.16,2.48,2.09,3.69c0.22-0.11,0.48-0.21,0.78-0.3c-0.89-1.25-1.59-2.53-1.59-3.13
		c0-0.61,0.46-0.87,1.2-0.72c0.2,1.06,0.62,2.21,1.53,3.6c0.29-0.05,0.6-0.09,0.93-0.12c-0.5-1.34-0.82-2.43-0.82-3.36
		c0-1.08,1.39-0.76,1.87-0.63c0,0.78,0.12,2.67,0.34,3.9C21.6,29.36,21.8,29.36,22,29.36z"/>
	<path class="st1" d="M22.71,30.43c0,0.31-0.27,0.5-0.71,0.5c-0.45,0-0.72-0.19-0.72-0.5c0-0.3,0.27-0.5,0.72-0.5
		C22.44,29.93,22.71,30.13,22.71,30.43z"/>
	<path class="st1" d="M20.51,30.5c0.03,0.27-0.21,0.49-0.59,0.52c-0.38,0.03-0.66-0.14-0.69-0.4c-0.03-0.27,0.21-0.49,0.59-0.52
		C20.2,30.06,20.48,30.23,20.51,30.5z"/>
	<ellipse class="st1" cx="18.01" cy="30.91" rx="0.48" ry="0.44"/>
	<path class="st1" d="M23.49,30.5c-0.03,0.27,0.21,0.49,0.59,0.52c0.38,0.03,0.66-0.14,0.68-0.4c0.03-0.27-0.21-0.49-0.59-0.52
		C23.8,30.06,23.52,30.23,23.49,30.5z"/>
	<path class="st1" d="M25.5,30.91c0,0.24,0.22,0.44,0.49,0.44c0.27,0,0.48-0.2,0.48-0.44c0-0.24-0.21-0.44-0.48-0.44
		C25.72,30.47,25.5,30.67,25.5,30.91z"/>
	<path fill="#ffffff" d="M56.62,45.95c-0.12,0.03-0.25,0.06-0.38,0.08c-0.12,0.01-0.26,0.03-0.4,0.04c-0.15,0-0.3,0.01-0.48,0.01
		c-0.25,0-0.48-0.01-0.67-0.03c-0.21-0.03-0.38-0.05-0.55-0.11v-0.26c0.29-0.1,0.49-0.22,0.62-0.37c0.12-0.16,0.18-0.4,0.18-0.69
		v-6.76l-0.87-0.22v-0.3c0.26-0.08,0.52-0.14,0.78-0.17c0.28-0.04,0.54-0.05,0.78-0.05s0.48,0.01,0.69,0.03
		c0.21,0.03,0.4,0.07,0.6,0.11v0.26c-0.14,0.04-0.26,0.1-0.37,0.14c-0.1,0.06-0.18,0.12-0.25,0.21c-0.07,0.08-0.11,0.16-0.14,0.28
		c-0.03,0.11-0.04,0.25-0.04,0.4v6.79l0.87,0.22v0.3C56.86,45.9,56.73,45.93,56.62,45.95z M60.91,46.08
		c-0.14,0.06-0.32,0.08-0.54,0.08c-0.16,0-0.32-0.01-0.45-0.05c-0.14-0.03-0.27-0.08-0.41-0.17c-0.12-0.1-0.26-0.21-0.4-0.36
		c-0.14-0.15-0.29-0.33-0.45-0.56l-2.49-3.45v-0.05l3.26-3.7v-0.01l-0.74-0.16v-0.29c0.15-0.04,0.29-0.08,0.41-0.11
		c0.12-0.03,0.25-0.05,0.37-0.07c0.11-0.01,0.22-0.03,0.34-0.03c0.11-0.01,0.23-0.01,0.37-0.01c0.17,0,0.33,0.01,0.49,0.03
		c0.15,0.01,0.3,0.06,0.45,0.1v0.26c-0.19,0.1-0.37,0.19-0.52,0.3c-0.15,0.11-0.32,0.25-0.48,0.43l-2.75,3.06l2.45,3.11
		c0.11,0.15,0.23,0.27,0.34,0.38c0.11,0.11,0.22,0.21,0.33,0.3c0.12,0.08,0.25,0.18,0.38,0.25c0.14,0.08,0.3,0.15,0.47,0.23v0.28
		C61.21,45.95,61.06,46.02,60.91,46.08z"/>
	<path fill="#ffffff" d="M67.66,44.02c-0.18,0.45-0.41,0.84-0.71,1.17c-0.3,0.32-0.65,0.56-1.03,0.73c-0.4,0.18-0.8,0.26-1.2,0.26
		c-0.41,0-0.81-0.07-1.17-0.22c-0.37-0.14-0.69-0.34-0.96-0.62c-0.26-0.26-0.48-0.6-0.65-0.99c-0.15-0.4-0.23-0.84-0.23-1.35
		c0-0.56,0.1-1.07,0.26-1.53c0.18-0.45,0.43-0.85,0.71-1.17c0.3-0.31,0.65-0.56,1.03-0.74c0.38-0.18,0.8-0.26,1.22-0.26
		c0.43,0,0.81,0.08,1.18,0.23c0.37,0.15,0.69,0.36,0.95,0.65c0.27,0.28,0.48,0.61,0.63,0.99c0.16,0.4,0.23,0.83,0.23,1.31
		C67.94,43.04,67.86,43.56,67.66,44.02z M66.54,41.53c-0.1-0.3-0.23-0.56-0.4-0.78c-0.18-0.21-0.37-0.37-0.59-0.48
		c-0.22-0.11-0.45-0.16-0.7-0.16c-0.23,0-0.47,0.07-0.69,0.18c-0.23,0.12-0.44,0.29-0.6,0.52c-0.18,0.23-0.33,0.52-0.43,0.87
		c-0.11,0.34-0.16,0.74-0.16,1.2c0,0.41,0.05,0.78,0.15,1.08c0.1,0.32,0.23,0.58,0.4,0.8c0.18,0.21,0.37,0.37,0.59,0.48
		c0.22,0.1,0.45,0.15,0.7,0.15c0.23,0,0.45-0.06,0.69-0.17c0.22-0.11,0.43-0.29,0.6-0.52c0.18-0.22,0.32-0.51,0.43-0.87
		c0.11-0.34,0.17-0.76,0.17-1.22C66.69,42.2,66.63,41.85,66.54,41.53z"/>
	<path fill="#ffffff" d="M74.02,46.08c-0.14,0-0.29-0.01-0.45-0.03c-0.15-0.01-0.3-0.04-0.44-0.1v-0.23c0.18-0.08,0.3-0.18,0.37-0.33
		c0.08-0.14,0.12-0.33,0.12-0.58v-2.62c0-0.33-0.04-0.62-0.1-0.85c-0.07-0.25-0.17-0.44-0.29-0.58c-0.12-0.15-0.26-0.26-0.43-0.33
		c-0.18-0.07-0.36-0.1-0.56-0.1c-0.27,0-0.55,0.04-0.8,0.12c-0.26,0.08-0.47,0.19-0.62,0.3v4.62l0.77,0.21v0.26
		c-0.12,0.04-0.23,0.08-0.34,0.11c-0.12,0.03-0.25,0.06-0.37,0.07c-0.12,0.01-0.26,0.03-0.41,0.04c-0.14,0-0.29,0.01-0.47,0.01
		c-0.17,0-0.34-0.01-0.52-0.03c-0.18-0.01-0.36-0.04-0.51-0.1v-0.23c0.1-0.03,0.18-0.07,0.26-0.12c0.1-0.05,0.16-0.11,0.23-0.18
		c0.07-0.05,0.12-0.12,0.18-0.21c0.04-0.07,0.05-0.15,0.05-0.23v-4.64l-0.89-0.37v-0.3c0.32-0.1,0.62-0.15,0.91-0.19
		c0.29-0.04,0.54-0.06,0.74-0.06h0.33v0.74c0.23-0.23,0.54-0.43,0.89-0.56c0.36-0.14,0.74-0.21,1.14-0.21
		c0.29,0,0.55,0.04,0.78,0.14c0.23,0.1,0.44,0.23,0.6,0.41c0.17,0.18,0.3,0.4,0.4,0.66c0.08,0.28,0.14,0.59,0.14,0.93v3.85
		l0.71,0.21v0.26C75.08,46,74.6,46.08,74.02,46.08z"/>
	<path fill="#ffffff" d="M78.78,45.95c-0.12,0.03-0.23,0.06-0.37,0.07c-0.12,0.01-0.26,0.03-0.4,0.04c-0.15,0-0.3,0.01-0.48,0.01
		c-0.15,0-0.33-0.01-0.51-0.03c-0.19-0.01-0.37-0.04-0.52-0.1v-0.23c0.1-0.03,0.18-0.07,0.27-0.12c0.08-0.05,0.17-0.11,0.23-0.18
		c0.07-0.05,0.12-0.12,0.17-0.21c0.04-0.07,0.05-0.15,0.05-0.23v-4.64l-0.88-0.37v-0.29c0.32-0.1,0.62-0.15,0.91-0.19
		c0.29-0.06,0.54-0.07,0.73-0.07h0.44l-0.07,0.74v5.22l0.77,0.21v0.26C79,45.89,78.89,45.93,78.78,45.95z M78.52,37.64
		c-0.04,0.1-0.1,0.19-0.16,0.26c-0.07,0.08-0.15,0.14-0.25,0.18c-0.1,0.05-0.19,0.07-0.3,0.07c-0.1,0-0.19-0.01-0.29-0.05
		c-0.08-0.04-0.17-0.1-0.23-0.17c-0.06-0.07-0.11-0.15-0.15-0.25c-0.04-0.1-0.06-0.21-0.06-0.32c0-0.11,0.01-0.21,0.06-0.3
		c0.03-0.1,0.08-0.18,0.15-0.26c0.07-0.08,0.15-0.14,0.25-0.18c0.1-0.04,0.21-0.07,0.33-0.07c0.1,0,0.19,0.01,0.28,0.05
		c0.08,0.03,0.16,0.08,0.23,0.15c0.07,0.05,0.11,0.14,0.15,0.23c0.04,0.08,0.06,0.19,0.06,0.3C78.57,37.42,78.56,37.53,78.52,37.64z
		"/>
	<path fill="#ffffff" d="M85.17,46.08c-0.14,0-0.29-0.01-0.45-0.03c-0.15-0.01-0.3-0.04-0.44-0.1v-0.23c0.18-0.08,0.3-0.18,0.37-0.33
		c0.08-0.14,0.12-0.33,0.12-0.58v-2.62c0-0.33-0.04-0.62-0.1-0.85c-0.07-0.25-0.17-0.44-0.29-0.58c-0.12-0.15-0.26-0.26-0.43-0.33
		c-0.18-0.07-0.36-0.1-0.56-0.1c-0.28,0-0.55,0.04-0.8,0.12c-0.26,0.08-0.47,0.19-0.62,0.3v4.62l0.77,0.21v0.26
		c-0.12,0.04-0.23,0.08-0.34,0.11c-0.12,0.03-0.25,0.06-0.37,0.07c-0.12,0.01-0.26,0.03-0.41,0.04c-0.14,0-0.29,0.01-0.47,0.01
		c-0.17,0-0.34-0.01-0.52-0.03c-0.18-0.01-0.36-0.04-0.51-0.1v-0.23c0.1-0.03,0.18-0.07,0.26-0.12c0.1-0.05,0.17-0.11,0.23-0.18
		c0.07-0.05,0.12-0.12,0.18-0.21c0.04-0.07,0.05-0.15,0.05-0.23v-4.64l-0.89-0.37v-0.3c0.32-0.1,0.62-0.15,0.91-0.19
		c0.29-0.04,0.54-0.06,0.74-0.06h0.33v0.74c0.23-0.23,0.54-0.43,0.89-0.56c0.36-0.14,0.74-0.21,1.14-0.21
		c0.29,0,0.55,0.04,0.78,0.14c0.23,0.1,0.44,0.23,0.6,0.41c0.17,0.18,0.3,0.4,0.4,0.66c0.08,0.28,0.14,0.59,0.14,0.93v3.85
		l0.71,0.21v0.26C86.23,46,85.75,46.08,85.17,46.08z"/>
	<path fill="#ffffff" d="M93.23,46.01c-0.17,0.04-0.34,0.07-0.55,0.07c-0.19,0-0.37-0.04-0.54-0.12c-0.17-0.08-0.3-0.22-0.44-0.4l-2.24-2.95v2.78
		l0.71,0.22v0.26c-0.12,0.04-0.25,0.08-0.37,0.1c-0.11,0.03-0.23,0.06-0.36,0.07c-0.12,0.03-0.25,0.04-0.38,0.04
		c-0.12,0.01-0.27,0.01-0.44,0.01c-0.15,0-0.33-0.01-0.51-0.03c-0.19-0.01-0.37-0.04-0.52-0.1v-0.23c0.1-0.03,0.19-0.07,0.27-0.12
		c0.1-0.05,0.17-0.11,0.23-0.18c0.07-0.05,0.12-0.12,0.18-0.21c0.04-0.07,0.05-0.15,0.05-0.23v-7.97l-0.91-0.37v-0.3
		c0.32-0.1,0.63-0.15,0.92-0.19c0.29-0.03,0.54-0.05,0.73-0.05h0.47l-0.08,0.77v5.49l0.76-0.66c0.18-0.16,0.37-0.33,0.54-0.52
		c0.17-0.19,0.32-0.38,0.45-0.58c0.12-0.19,0.23-0.4,0.3-0.58c0.08-0.19,0.12-0.37,0.12-0.52c0.12-0.04,0.25-0.07,0.36-0.08
		c0.11-0.01,0.23-0.03,0.37-0.03c0.11,0,0.21,0.01,0.29,0.03c0.08,0.03,0.18,0.06,0.26,0.1c0,0.15-0.06,0.32-0.12,0.49
		c-0.08,0.19-0.19,0.4-0.34,0.61c-0.15,0.21-0.36,0.43-0.58,0.65c-0.23,0.22-0.51,0.45-0.82,0.67l-0.48,0.34l2.12,2.57
		c0.19,0.23,0.37,0.4,0.55,0.51c0.16,0.1,0.33,0.15,0.47,0.15v0.29C93.55,45.89,93.38,45.97,93.23,46.01z"/>
	<path fill="#ffffff" d="M96.43,45.95c-0.12,0.03-0.25,0.06-0.37,0.07c-0.12,0.01-0.26,0.03-0.41,0.04c-0.14,0-0.29,0.01-0.47,0.01
		c-0.17,0-0.34-0.01-0.52-0.03c-0.18-0.01-0.36-0.04-0.51-0.1v-0.23c0.1-0.03,0.18-0.07,0.26-0.12c0.1-0.05,0.17-0.11,0.23-0.18
		c0.07-0.05,0.12-0.12,0.18-0.21c0.04-0.07,0.05-0.15,0.05-0.23v-7.97l-0.89-0.37v-0.3c0.15-0.04,0.32-0.08,0.47-0.11
		c0.15-0.03,0.3-0.06,0.45-0.08c0.14-0.01,0.27-0.03,0.4-0.04c0.12,0,0.23-0.01,0.33-0.01h0.44L96,36.86v8.52l0.77,0.21v0.26
		C96.65,45.89,96.54,45.93,96.43,45.95z"/>
	<path fill="#ffffff" d="M100.04,45.95c-0.12,0.03-0.23,0.06-0.37,0.07c-0.12,0.01-0.26,0.03-0.4,0.04c-0.15,0-0.3,0.01-0.48,0.01
		c-0.15,0-0.33-0.01-0.51-0.03c-0.19-0.01-0.37-0.04-0.52-0.1v-0.23c0.1-0.03,0.18-0.07,0.27-0.12c0.08-0.05,0.17-0.11,0.23-0.18
		c0.07-0.05,0.12-0.12,0.17-0.21c0.04-0.07,0.05-0.15,0.05-0.23v-4.64l-0.88-0.37v-0.29c0.32-0.1,0.62-0.15,0.91-0.19
		c0.29-0.06,0.54-0.07,0.73-0.07h0.44l-0.07,0.74v5.22l0.77,0.21v0.26C100.26,45.89,100.15,45.93,100.04,45.95z M99.78,37.64
		c-0.04,0.1-0.1,0.19-0.16,0.26c-0.07,0.08-0.15,0.14-0.25,0.18c-0.1,0.05-0.19,0.07-0.3,0.07c-0.1,0-0.19-0.01-0.29-0.05
		c-0.08-0.04-0.16-0.1-0.23-0.17c-0.06-0.07-0.11-0.15-0.15-0.25c-0.04-0.1-0.05-0.21-0.05-0.32c0-0.11,0.01-0.21,0.05-0.3
		c0.03-0.1,0.08-0.18,0.15-0.26c0.07-0.08,0.15-0.14,0.25-0.18c0.1-0.04,0.21-0.07,0.33-0.07c0.1,0,0.19,0.01,0.28,0.05
		c0.08,0.03,0.16,0.08,0.23,0.15c0.07,0.05,0.11,0.14,0.15,0.23c0.04,0.08,0.06,0.19,0.06,0.3C99.83,37.42,99.82,37.53,99.78,37.64z
		"/>
	<path fill="#ffffff" d="M103.23,40.19v6.17c0,0.56-0.04,1.03-0.12,1.42c-0.08,0.37-0.19,0.67-0.33,0.91c-0.14,0.23-0.3,0.4-0.49,0.5
		c-0.19,0.1-0.4,0.14-0.6,0.14c-0.16,0-0.3-0.03-0.44-0.08c-0.14-0.05-0.25-0.14-0.34-0.25v-0.22c0.15,0,0.3-0.04,0.45-0.12
		c0.14-0.1,0.27-0.22,0.38-0.4c0.11-0.18,0.21-0.4,0.26-0.66c0.07-0.26,0.11-0.56,0.11-0.91v-6.33l-0.88-0.37v-0.29
		c0.32-0.1,0.62-0.15,0.91-0.19c0.29-0.06,0.54-0.07,0.73-0.07h0.45L103.23,40.19z M103.38,37.64c-0.04,0.1-0.08,0.19-0.15,0.26
		c-0.08,0.08-0.15,0.14-0.25,0.18c-0.1,0.05-0.19,0.07-0.3,0.07c-0.11,0-0.21-0.01-0.29-0.05c-0.1-0.04-0.17-0.1-0.23-0.17
		c-0.07-0.07-0.12-0.15-0.15-0.25c-0.04-0.1-0.05-0.21-0.05-0.32c0-0.11,0.01-0.21,0.04-0.3c0.04-0.1,0.1-0.18,0.17-0.26
		c0.07-0.08,0.15-0.14,0.25-0.18c0.1-0.04,0.21-0.07,0.33-0.07c0.08,0,0.18,0.01,0.26,0.05c0.1,0.03,0.17,0.08,0.23,0.15
		c0.07,0.05,0.11,0.14,0.15,0.23c0.04,0.08,0.05,0.19,0.05,0.3C103.44,37.42,103.42,37.53,103.38,37.64z"/>
	<path fill="#ffffff" d="M110.41,46.01c-0.16,0.04-0.34,0.07-0.55,0.07c-0.19,0-0.37-0.04-0.54-0.12c-0.17-0.08-0.3-0.22-0.44-0.4l-2.24-2.95v2.78
		l0.71,0.22v0.26c-0.12,0.04-0.25,0.08-0.37,0.1c-0.11,0.03-0.23,0.06-0.36,0.07c-0.12,0.03-0.25,0.04-0.38,0.04
		c-0.12,0.01-0.27,0.01-0.44,0.01c-0.15,0-0.33-0.01-0.51-0.03c-0.19-0.01-0.37-0.04-0.52-0.1v-0.23c0.1-0.03,0.19-0.07,0.27-0.12
		c0.1-0.05,0.17-0.11,0.23-0.18c0.07-0.05,0.12-0.12,0.18-0.21c0.04-0.07,0.05-0.15,0.05-0.23v-7.97l-0.91-0.37v-0.3
		c0.32-0.1,0.63-0.15,0.92-0.19c0.29-0.03,0.54-0.05,0.73-0.05h0.47l-0.08,0.77v5.49l0.75-0.66c0.18-0.16,0.37-0.33,0.54-0.52
		c0.16-0.19,0.32-0.38,0.45-0.58c0.12-0.19,0.23-0.4,0.3-0.58c0.08-0.19,0.12-0.37,0.12-0.52c0.12-0.04,0.25-0.07,0.36-0.08
		c0.11-0.01,0.23-0.03,0.37-0.03c0.11,0,0.21,0.01,0.29,0.03c0.08,0.03,0.18,0.06,0.26,0.1c0,0.15-0.06,0.32-0.12,0.49
		c-0.08,0.19-0.19,0.4-0.34,0.61c-0.15,0.21-0.36,0.43-0.58,0.65c-0.23,0.22-0.51,0.45-0.82,0.67l-0.48,0.34l2.12,2.57
		c0.19,0.23,0.37,0.4,0.55,0.51c0.16,0.1,0.33,0.15,0.47,0.15v0.29C110.73,45.89,110.57,45.97,110.41,46.01z"/>
	<path fill="#ffffff" d="M116.51,42.77h-4.05c0,0.38,0.05,0.73,0.15,1.03c0.11,0.3,0.26,0.55,0.44,0.76c0.18,0.21,0.4,0.37,0.65,0.48
		c0.25,0.11,0.51,0.16,0.8,0.16c0.17,0,0.33-0.01,0.51-0.04c0.18-0.03,0.34-0.07,0.51-0.12c0.18-0.04,0.33-0.11,0.49-0.18
		c0.15-0.08,0.3-0.17,0.43-0.25c0.01,0.03,0.03,0.08,0.04,0.15c0.01,0.07,0.01,0.14,0.01,0.21c0,0.17-0.06,0.32-0.17,0.45
		c-0.11,0.14-0.26,0.27-0.47,0.38c-0.21,0.11-0.45,0.19-0.74,0.26c-0.3,0.07-0.63,0.1-0.99,0.1c-0.4,0-0.76-0.07-1.1-0.22
		c-0.36-0.15-0.65-0.36-0.91-0.63c-0.26-0.28-0.47-0.61-0.62-0.99c-0.14-0.38-0.22-0.82-0.22-1.3c0-0.59,0.08-1.13,0.25-1.6
		c0.16-0.45,0.38-0.84,0.66-1.15c0.26-0.3,0.56-0.55,0.91-0.7c0.34-0.16,0.7-0.25,1.06-0.25c0.37,0,0.7,0.06,1,0.18
		c0.29,0.12,0.54,0.29,0.74,0.51c0.21,0.23,0.36,0.5,0.47,0.81c0.11,0.33,0.16,0.67,0.16,1.07c0,0.14,0,0.26,0,0.41
		C116.52,42.44,116.52,42.6,116.51,42.77z M115.32,41.17c-0.07-0.25-0.16-0.45-0.29-0.62c-0.12-0.16-0.26-0.29-0.44-0.37
		c-0.17-0.08-0.36-0.12-0.55-0.12c-0.19,0-0.37,0.06-0.56,0.17c-0.19,0.1-0.36,0.25-0.49,0.43c-0.15,0.18-0.26,0.4-0.36,0.63
		c-0.1,0.25-0.14,0.49-0.14,0.77h2.94C115.43,41.71,115.38,41.42,115.32,41.17z"/>
	<path fill="#ffffff" d="M125.59,45.95h-5.21v-0.31c0.25-0.06,0.45-0.15,0.59-0.3c0.14-0.15,0.21-0.37,0.21-0.67v-6.79l-0.87-0.22v-0.3
		c0.26-0.07,0.52-0.12,0.8-0.17c0.26-0.04,0.51-0.05,0.76-0.05c0.14,0,0.26,0,0.37,0c0.11,0.01,0.21,0.01,0.32,0.03
		c0.1,0.01,0.19,0.03,0.29,0.04c0.11,0.03,0.22,0.04,0.33,0.07v0.26c-0.15,0.06-0.27,0.11-0.37,0.17c-0.1,0.05-0.18,0.12-0.25,0.19
		c-0.07,0.08-0.11,0.18-0.14,0.27c-0.03,0.11-0.04,0.23-0.04,0.37v6.61h1.54c0.4,0,0.71-0.07,0.95-0.19
		c0.25-0.11,0.43-0.3,0.55-0.56l0.15-0.32h0.34L125.59,45.95z"/>
	<path fill="#ffffff" d="M131.26,45.85c-0.17,0.14-0.34,0.25-0.52,0.33c-0.14-0.08-0.25-0.18-0.36-0.29c-0.1-0.12-0.19-0.25-0.28-0.38
		c-0.1,0.1-0.21,0.18-0.34,0.26c-0.15,0.08-0.29,0.15-0.45,0.21c-0.16,0.07-0.33,0.11-0.52,0.14c-0.18,0.04-0.36,0.05-0.54,0.05
		c-0.26,0-0.49-0.04-0.7-0.11c-0.22-0.08-0.4-0.18-0.55-0.32c-0.17-0.14-0.27-0.3-0.37-0.49c-0.08-0.18-0.12-0.38-0.12-0.6
		c0-0.3,0.08-0.59,0.25-0.85c0.15-0.27,0.38-0.51,0.7-0.71c0.3-0.21,0.67-0.37,1.11-0.49c0.44-0.11,0.95-0.18,1.51-0.18v-0.37
		c0-0.37-0.03-0.67-0.07-0.91c-0.05-0.23-0.12-0.41-0.22-0.55c-0.1-0.12-0.22-0.22-0.38-0.28c-0.15-0.04-0.33-0.07-0.55-0.07
		c-0.38,0-0.74,0.08-1.1,0.23c-0.34,0.15-0.67,0.37-0.96,0.66c-0.03-0.12-0.04-0.26-0.04-0.41c0-0.22,0.04-0.41,0.12-0.59
		c0.08-0.17,0.22-0.32,0.4-0.43c0.18-0.12,0.41-0.22,0.7-0.28c0.29-0.07,0.63-0.1,1.03-0.1c0.34,0,0.66,0.04,0.93,0.12
		c0.27,0.1,0.49,0.21,0.69,0.37c0.19,0.17,0.34,0.36,0.44,0.58c0.1,0.22,0.15,0.48,0.15,0.77c0,0.07,0,0.16-0.01,0.29
		c0,0.11,0,0.23-0.01,0.37c0,0.12-0.01,0.26-0.01,0.38c0,0.12-0.01,0.25-0.01,0.34l-0.04,2.23c0.06,0.12,0.12,0.25,0.22,0.37
		c0.1,0.12,0.21,0.23,0.33,0.33C131.57,45.6,131.44,45.72,131.26,45.85z M130.08,43.04c-0.38,0-0.73,0.04-1.03,0.11
		c-0.3,0.08-0.55,0.18-0.74,0.3c-0.21,0.12-0.36,0.28-0.47,0.44c-0.1,0.18-0.15,0.34-0.15,0.54c0,0.27,0.1,0.49,0.27,0.66
		c0.18,0.17,0.44,0.25,0.8,0.25c0.11,0,0.22-0.01,0.33-0.03c0.12-0.03,0.25-0.05,0.36-0.08c0.12-0.03,0.23-0.07,0.34-0.12
		c0.11-0.04,0.21-0.08,0.29-0.14V43.04z"/>
	<path fill="#ffffff" d="M137.82,46.08c-0.14,0-0.29-0.01-0.45-0.03c-0.15-0.01-0.3-0.04-0.44-0.1v-0.23c0.18-0.08,0.3-0.18,0.37-0.33
		c0.08-0.14,0.12-0.33,0.12-0.58v-2.62c0-0.33-0.04-0.62-0.1-0.85c-0.07-0.25-0.17-0.44-0.29-0.58c-0.12-0.15-0.26-0.26-0.43-0.33
		c-0.18-0.07-0.36-0.1-0.56-0.1c-0.28,0-0.55,0.04-0.8,0.12c-0.26,0.08-0.47,0.19-0.62,0.3v4.62l0.77,0.21v0.26
		c-0.12,0.04-0.23,0.08-0.34,0.11c-0.12,0.03-0.25,0.06-0.37,0.07c-0.12,0.01-0.26,0.03-0.41,0.04c-0.14,0-0.29,0.01-0.47,0.01
		c-0.17,0-0.34-0.01-0.52-0.03c-0.18-0.01-0.36-0.04-0.51-0.1v-0.23c0.1-0.03,0.18-0.07,0.26-0.12c0.1-0.05,0.16-0.11,0.23-0.18
		c0.07-0.05,0.12-0.12,0.18-0.21c0.04-0.07,0.05-0.15,0.05-0.23v-4.64l-0.89-0.37v-0.3c0.32-0.1,0.62-0.15,0.91-0.19
		c0.29-0.04,0.54-0.06,0.74-0.06h0.33v0.74c0.23-0.23,0.54-0.43,0.89-0.56c0.36-0.14,0.74-0.21,1.14-0.21
		c0.29,0,0.55,0.04,0.78,0.14c0.23,0.1,0.44,0.23,0.6,0.41c0.17,0.18,0.3,0.4,0.4,0.66c0.08,0.28,0.14,0.59,0.14,0.93v3.85
		l0.71,0.21v0.26C138.88,46,138.4,46.08,137.82,46.08z"/>
	<path fill="#ffffff" d="M145.65,45.87c-0.15,0.1-0.33,0.21-0.52,0.3c-0.14-0.11-0.26-0.23-0.38-0.38c-0.11-0.15-0.21-0.3-0.28-0.44
		c-0.11,0.11-0.23,0.22-0.38,0.32c-0.14,0.1-0.29,0.18-0.44,0.25c-0.16,0.07-0.32,0.12-0.48,0.16c-0.17,0.04-0.32,0.06-0.45,0.06
		c-0.34,0-0.67-0.07-0.98-0.21c-0.3-0.14-0.56-0.34-0.8-0.59c-0.22-0.26-0.4-0.58-0.54-0.95c-0.12-0.37-0.19-0.78-0.19-1.24
		c0-0.62,0.08-1.17,0.26-1.63c0.18-0.48,0.41-0.88,0.71-1.2c0.29-0.33,0.65-0.58,1.04-0.74c0.4-0.17,0.81-0.25,1.26-0.25
		c0.17,0,0.33,0.01,0.51,0.03c0.18,0.01,0.33,0.04,0.44,0.07v-2.42l-0.93-0.37v-0.3c0.32-0.1,0.63-0.15,0.93-0.19
		c0.32-0.03,0.56-0.05,0.77-0.05h0.44l-0.08,0.77v7.87c0.06,0.14,0.12,0.28,0.21,0.41c0.08,0.14,0.18,0.27,0.32,0.38
		C145.95,45.65,145.8,45.76,145.65,45.87z M144.45,40.26c-0.11-0.04-0.26-0.07-0.45-0.11c-0.18-0.03-0.36-0.04-0.55-0.04
		c-0.29,0-0.56,0.05-0.81,0.18c-0.25,0.11-0.47,0.29-0.66,0.52c-0.18,0.23-0.32,0.52-0.43,0.88c-0.1,0.36-0.15,0.77-0.15,1.25
		c0,0.37,0.04,0.7,0.14,0.99c0.1,0.29,0.22,0.54,0.37,0.73c0.15,0.19,0.32,0.34,0.52,0.44c0.19,0.11,0.4,0.15,0.62,0.15
		c0.14,0,0.26-0.01,0.4-0.03c0.14-0.03,0.26-0.05,0.38-0.1c0.12-0.04,0.23-0.08,0.34-0.14c0.11-0.05,0.19-0.11,0.28-0.18V40.26z"/>
	<path fill="#ffffff" d="M156.68,46.02c-0.25,0.03-0.51,0.05-0.81,0.05c-0.14,0-0.29-0.01-0.44-0.03c-0.17-0.01-0.32-0.04-0.44-0.1v-0.23
		c0.18-0.08,0.3-0.18,0.37-0.33c0.08-0.14,0.12-0.33,0.12-0.58v-2.68c0-0.32-0.03-0.58-0.1-0.81c-0.07-0.23-0.16-0.41-0.29-0.56
		c-0.12-0.15-0.26-0.26-0.44-0.33c-0.16-0.07-0.36-0.1-0.58-0.1c-0.25,0-0.48,0.03-0.71,0.08c-0.22,0.06-0.43,0.14-0.61,0.23
		c0.03,0.14,0.05,0.3,0.07,0.48c0.01,0.19,0.01,0.37,0.01,0.55v3.7l0.71,0.21v0.26c-0.19,0.08-0.41,0.14-0.65,0.18
		c-0.23,0.03-0.49,0.05-0.8,0.05c-0.15,0-0.29-0.01-0.45-0.03c-0.15-0.01-0.3-0.04-0.44-0.1v-0.23c0.18-0.08,0.3-0.18,0.38-0.33
		c0.07-0.14,0.11-0.33,0.11-0.58v-2.53c0-0.38-0.03-0.7-0.08-0.95c-0.05-0.25-0.14-0.45-0.25-0.6c-0.11-0.15-0.25-0.25-0.41-0.32
		c-0.17-0.05-0.34-0.08-0.56-0.08c-0.14,0-0.28,0.01-0.4,0.03c-0.14,0.03-0.26,0.05-0.38,0.1c-0.11,0.04-0.22,0.08-0.32,0.14
		c-0.1,0.05-0.19,0.11-0.26,0.16v4.62l0.77,0.21v0.26c-0.23,0.08-0.48,0.14-0.71,0.18c-0.25,0.03-0.54,0.05-0.88,0.05
		c-0.16,0-0.34-0.01-0.52-0.03c-0.18-0.01-0.36-0.04-0.51-0.1v-0.23c0.1-0.03,0.18-0.07,0.26-0.12c0.1-0.05,0.16-0.11,0.23-0.18
		c0.07-0.05,0.12-0.12,0.18-0.21c0.04-0.07,0.05-0.15,0.05-0.23v-4.64l-0.89-0.37v-0.3c0.32-0.1,0.62-0.15,0.91-0.19
		c0.29-0.04,0.54-0.06,0.74-0.06h0.33v0.74c0.25-0.23,0.54-0.43,0.89-0.56c0.34-0.14,0.73-0.21,1.13-0.21
		c0.16,0,0.33,0.01,0.48,0.05c0.15,0.04,0.3,0.1,0.44,0.18c0.14,0.07,0.26,0.16,0.37,0.26c0.11,0.11,0.19,0.22,0.26,0.34
		c0.11-0.11,0.25-0.21,0.4-0.32c0.16-0.1,0.34-0.19,0.54-0.26c0.19-0.08,0.38-0.14,0.59-0.19c0.19-0.04,0.4-0.07,0.59-0.07
		c0.29,0,0.55,0.04,0.78,0.14c0.23,0.08,0.44,0.22,0.6,0.4c0.17,0.18,0.29,0.41,0.38,0.69c0.1,0.27,0.14,0.59,0.14,0.96v3.81
		l0.71,0.21v0.26C157.13,45.93,156.91,45.98,156.68,46.02z"/>
	<path fill="#ffffff" d="M162.95,45.85c-0.16,0.14-0.34,0.25-0.52,0.33c-0.14-0.08-0.25-0.18-0.36-0.29c-0.1-0.12-0.19-0.25-0.28-0.38
		c-0.1,0.1-0.21,0.18-0.34,0.26c-0.15,0.08-0.29,0.15-0.45,0.21c-0.16,0.07-0.33,0.11-0.52,0.14c-0.18,0.04-0.36,0.05-0.54,0.05
		c-0.26,0-0.49-0.04-0.7-0.11c-0.22-0.08-0.4-0.18-0.55-0.32c-0.16-0.14-0.28-0.3-0.37-0.49c-0.08-0.18-0.12-0.38-0.12-0.6
		c0-0.3,0.08-0.59,0.25-0.85c0.15-0.27,0.38-0.51,0.7-0.71c0.3-0.21,0.67-0.37,1.11-0.49c0.44-0.11,0.95-0.18,1.51-0.18v-0.37
		c0-0.37-0.03-0.67-0.07-0.91c-0.05-0.23-0.12-0.41-0.22-0.55c-0.1-0.12-0.22-0.22-0.38-0.28c-0.15-0.04-0.33-0.07-0.55-0.07
		c-0.38,0-0.74,0.08-1.1,0.23c-0.34,0.15-0.67,0.37-0.96,0.66c-0.03-0.12-0.04-0.26-0.04-0.41c0-0.22,0.04-0.41,0.12-0.59
		c0.08-0.17,0.22-0.32,0.4-0.43c0.18-0.12,0.41-0.22,0.7-0.28c0.29-0.07,0.63-0.1,1.03-0.1c0.34,0,0.66,0.04,0.93,0.12
		c0.28,0.1,0.49,0.21,0.69,0.37c0.19,0.17,0.34,0.36,0.44,0.58c0.1,0.22,0.15,0.48,0.15,0.77c0,0.07,0,0.16-0.01,0.29
		c0,0.11,0,0.23-0.01,0.37c0,0.12-0.01,0.26-0.01,0.38c0,0.12-0.01,0.25-0.01,0.34l-0.04,2.23c0.05,0.12,0.12,0.25,0.22,0.37
		c0.1,0.12,0.21,0.23,0.33,0.33C163.26,45.6,163.13,45.72,162.95,45.85z M161.77,43.04c-0.38,0-0.73,0.04-1.03,0.11
		c-0.3,0.08-0.55,0.18-0.74,0.3c-0.21,0.12-0.36,0.28-0.47,0.44c-0.1,0.18-0.15,0.34-0.15,0.54c0,0.27,0.1,0.49,0.28,0.66
		c0.18,0.17,0.44,0.25,0.8,0.25c0.11,0,0.22-0.01,0.33-0.03c0.12-0.03,0.25-0.05,0.36-0.08c0.12-0.03,0.23-0.07,0.34-0.12
		c0.11-0.04,0.21-0.08,0.29-0.14V43.04z"/>
	<path fill="#ffffff" d="M169.05,45.46c-0.08,0.14-0.21,0.26-0.38,0.37c-0.16,0.1-0.37,0.18-0.62,0.25c-0.25,0.06-0.54,0.08-0.87,0.08
		c-0.38,0-0.73-0.07-1.07-0.22c-0.33-0.15-0.62-0.37-0.87-0.64c-0.26-0.27-0.45-0.61-0.61-0.99c-0.15-0.4-0.22-0.82-0.22-1.3
		c0-0.56,0.08-1.07,0.25-1.53c0.16-0.45,0.4-0.84,0.69-1.15c0.29-0.32,0.63-0.56,1.03-0.73c0.38-0.18,0.81-0.26,1.26-0.26
		c0.28,0,0.51,0.03,0.7,0.07c0.19,0.04,0.34,0.1,0.45,0.16c0.12,0.07,0.21,0.17,0.25,0.26c0.05,0.1,0.08,0.21,0.08,0.32
		c0,0.14-0.01,0.26-0.04,0.37c-0.03,0.11-0.07,0.23-0.12,0.34c-0.26-0.21-0.52-0.36-0.77-0.47c-0.26-0.11-0.54-0.16-0.82-0.16
		c-0.23,0-0.47,0.05-0.67,0.16c-0.22,0.12-0.4,0.29-0.56,0.51c-0.16,0.21-0.29,0.48-0.38,0.78c-0.1,0.32-0.14,0.67-0.14,1.07
		c0,0.41,0.05,0.77,0.15,1.07c0.1,0.32,0.23,0.56,0.41,0.77c0.18,0.21,0.38,0.36,0.62,0.47c0.23,0.1,0.49,0.15,0.76,0.15
		c0.14,0,0.27-0.01,0.41-0.04c0.14-0.03,0.28-0.07,0.41-0.11c0.14-0.05,0.26-0.11,0.38-0.18c0.14-0.07,0.25-0.14,0.36-0.22
		c0.04,0.1,0.07,0.21,0.07,0.34C169.18,45.17,169.14,45.32,169.05,45.46z"/>
	<path fill="#ffffff" d="M176,46.02c-0.25,0.03-0.51,0.05-0.81,0.05c-0.14,0-0.29-0.01-0.44-0.03c-0.17-0.01-0.3-0.04-0.44-0.1v-0.23
		c0.16-0.08,0.29-0.18,0.37-0.33c0.08-0.14,0.12-0.33,0.12-0.58v-2.62c0-0.33-0.03-0.62-0.1-0.85c-0.07-0.25-0.16-0.44-0.27-0.58
		c-0.12-0.15-0.28-0.26-0.44-0.33c-0.18-0.07-0.37-0.1-0.59-0.1c-0.12,0-0.26,0.01-0.4,0.03c-0.12,0.03-0.26,0.05-0.37,0.1
		c-0.12,0.04-0.23,0.08-0.34,0.14c-0.1,0.05-0.19,0.11-0.28,0.16v4.62l0.77,0.21v0.26c-0.12,0.04-0.23,0.08-0.34,0.11
		c-0.12,0.03-0.23,0.06-0.37,0.07c-0.12,0.01-0.26,0.03-0.4,0.04c-0.15,0-0.3,0.01-0.48,0.01c-0.15,0-0.33-0.01-0.51-0.03
		c-0.19-0.01-0.37-0.04-0.52-0.1v-0.23c0.1-0.03,0.18-0.07,0.27-0.12c0.08-0.05,0.17-0.11,0.23-0.18c0.07-0.05,0.12-0.12,0.16-0.21
		c0.04-0.07,0.05-0.15,0.05-0.23v-7.97L170,36.64v-0.3c0.32-0.1,0.61-0.15,0.88-0.19c0.28-0.03,0.54-0.05,0.77-0.05h0.44l-0.07,0.77
		v3.28c0.25-0.23,0.54-0.43,0.87-0.56c0.31-0.12,0.7-0.19,1.13-0.19c0.29,0,0.56,0.04,0.8,0.14c0.23,0.1,0.44,0.23,0.6,0.41
		c0.17,0.18,0.3,0.4,0.38,0.66c0.1,0.28,0.14,0.59,0.14,0.93v3.85l0.71,0.21v0.26C176.46,45.93,176.24,45.98,176,46.02z"/>
	<path fill="#ffffff" d="M179.83,46.13c-0.55,0-0.96-0.15-1.24-0.45c-0.26-0.3-0.4-0.78-0.4-1.46c0-0.33,0-0.67,0.01-1.02
		c0.01-0.36,0.01-0.69,0.03-1l0.04-1.83h-0.76v-0.45l1.48-1.47l0.45-0.05l-0.05,1.24h1.81l-0.1,0.74h-1.76l-0.03,1.73
		c0,0.29-0.01,0.56-0.01,0.84c0,0.26,0,0.51,0,0.77c0,0.28,0.01,0.51,0.06,0.7c0.04,0.19,0.1,0.34,0.18,0.47
		c0.07,0.11,0.15,0.19,0.26,0.25c0.1,0.05,0.22,0.08,0.34,0.08c0.21,0,0.38-0.03,0.56-0.1c0.17-0.07,0.32-0.15,0.45-0.26l0.14,0.05
		C181.26,45.72,180.76,46.13,179.83,46.13z"/>
	<path class="st1" d="M21.98,60.93c-0.71,0.01-1.48-0.03-2.24-0.21c-0.04-1.93,2.62-3.29,3.91-3.78c-0.81-1.06-1.58-1.58-3.23-1.96
		c0.6,0.41,0.84,0.72,0.99,1.06c-2.57-0.28-5.49,0.43-5.61,3.07c-0.48,0.1-1.47,0.32-1.94,0.75c1.51-0.14,3.83,1.19,3.39,3.72
		c-1.29-0.61-4.26-1.3-4.36,0.73c0.4-0.28,1.14-0.23,1.63-0.03c-0.75,0.26-0.86,1.28-0.53,2.02c0.38-0.62,1.15-1.14,1.89-1.24
		c-0.41,0.47-0.53,1.19-0.32,1.74c0.6-0.78,2.4-1.09,3.74-1.3c0.05-1.18,1.1-2.06,2.57-2.49c-0.5-0.26-0.94-0.54-1.28-0.9
		C21.11,61.88,21.65,61.44,21.98,60.93z"/>
	<path class="st1" d="M14.03,57.28c1.45-0.5,2.64-1.43,3.63-2.68c-1.94-0.41-3.14-0.26-3.67,0.45L14.03,57.28z"/>
	<path class="st1" d="M10.25,52.14c0.24-1.21,1.49-1.92,3.87-1.55c-0.14-0.8,0.02-1.94,0.21-2.55l-0.95-1.26l-0.11,1.37l-0.95-0.97
		l0.04,1.37l-1.05-0.86l0.19,1.36l-1.14-0.76l0.34,1.33l-1.22-0.64l0.48,1.28l-1.29-0.51L9.3,51l-1.33-0.38l0.8,1.27
		C9.18,51.83,9.74,51.87,10.25,52.14z"/>
	<path class="st1" d="M14.9,53.63c4.24-1.34,5.84-1.9,5.88-3.73c-1.21-0.15-3.19-0.36-6.18,1.65c-2.72-0.44-3.27,0.33-3.38,1.1
		c0.27-0.16,0.9-0.25,1.52-0.14c-0.7,0.28-1.25,0.89-1.02,1.57c0.2-0.39,0.86-0.64,1.52-0.57c-0.51,0.39-0.78,0.98-0.35,1.67
		C13.09,54.58,14.02,53.91,14.9,53.63z"/>
	<path class="st1" d="M14.48,45.03c0.03,0.94,0.25,1.99,0.9,3c0.57-1.17,1.58-1.82,3.36-2.5c-1.07-0.22-2.17-1.18-2.98-2.71
		c-0.65,0.48-1.53,0.85-2.29,0.67c0.07,0.58,0.23,1.43,0.11,2.01C13.96,45.4,14.26,45.22,14.48,45.03z"/>
	<path class="st1" d="M15.16,40.71c0.38,0.47,0.57,1.2,0.6,1.79c0.46-0.12,0.98-0.45,1.32-0.8c-0.39-0.27-0.77-0.65-0.99-1.01
		c2.63-1.42,4.45-2.04,7.96-3.32l1.17-1.66h-1.96c-3.35,1.49-4.8,2.23-7.71,3.94c-0.17-0.36-0.41-1.02-0.45-1.5
		c-0.46,0.12-1.03,0.44-1.41,0.79c0.41,0.28,0.79,0.64,1.07,1.07l-0.04,0.04c-0.34-0.22-0.85-0.03-0.96,0.29
		c-0.39-0.17-0.89,0.06-0.96,0.46c-0.52-0.12-1.11,0.39-0.89,1.07c-0.09-0.03-0.17-0.06-0.28-0.06c-0.49-0.02-0.91,0.34-0.94,0.8
		c-0.03,0.46,0.33,0.85,0.82,0.87c0.48,0.02,0.89-0.33,0.94-0.78c0.2,0.18,0.52,0.35,0.8,0.46c-0.13-0.37-0.15-0.82-0.11-1.12
		c0.2,0.28,0.58,0.56,1,0.64c-0.13-0.47-0.16-0.98-0.12-1.26c0.2,0.34,0.6,0.64,0.94,0.78c-0.09-0.49-0.08-1.15,0.13-1.47
		L15.16,40.71z"/>
	<path class="st1" d="M22.04,44.04c0.36-0.12,0.52-0.26,0.5-0.43c-0.02-0.16-0.18-0.28-0.55-0.15c-1.44,0.46-2.88,0.12-2.88-1.28
		c0-0.21,0.08-0.54,0.23-0.75C17.21,41.61,17.45,45.63,22.04,44.04z"/>
	<path class="st1" d="M27.94,42.98c0.05,0.03,0.1,0.05,0.15,0.08l1.96-1.2l-1.22-0.19c-0.1,0.16-0.28,0.27-0.49,0.27
		c-0.32,0.01-0.58-0.25-0.58-0.56c0-0.32,0.25-0.58,0.58-0.59v-1.04l-1.04,0.02c0,0.32-0.26,0.58-0.58,0.59
		c-0.33,0.01-0.59-0.25-0.59-0.57c0-0.2,0.11-0.38,0.26-0.48l-0.23-1.21l-1.18,1.96c0.02,0.05,0.05,0.09,0.07,0.14l-0.07,0.07
		c-1.25-0.12-2.01,0.25-2.46,0.68c-0.7-0.09-1.69,0.17-2.12,0.52c-0.21,0.65,0.13,1.41,0.62,1.71l0.11-0.01
		c0.03-0.21,0.51-0.44,0.99-0.45c0.54-0.01,1.04,0.26,1.01,0.94c-0.04,0.78-1.02,1.11-1.9,1.01c0.09,0.89,1.29,0.81,2.15,0.42
		c-0.07,0.71-0.94,1.08-2.67,1.29c-2.78,0.32-4.6,1.48-4.99,3.38c1-0.66,2.49-0.95,3.64-0.95c0.93,0,1.9,0.08,2.37,0.02
		c0.07,0.54,0.03,1.33-0.19,2.07c0.92-0.46,2.19-1.48,2.81-2.27c0.39,0.64,1.05,1.39,1.62,1.76c0.02-0.74,0.18-1.56,0.48-2.2
		c0.32,0.45,0.85,0.86,1.53,1.14c-0.31-0.7-0.37-1.59-0.31-2.28c0.3-1,0.56-2.94,0.18-3.94L27.94,42.98z M22.85,40.97
		c0.71,0.08,1.29,0.14,2.05,0.14c-0.2,0.52-0.7,0.83-1.26,0.88c-0.08-0.28-0.38-0.68-0.82-0.92L22.85,40.97z M26,41.08
		c0.06-0.02,0.13-0.03,0.2-0.03c0.49-0.01,0.89,0.38,0.89,0.86c0,0.49-0.4,0.89-0.89,0.9c-0.07,0-0.14-0.01-0.2-0.02
		c0.1-0.25,0.16-0.55,0.16-0.86C26.15,41.63,26.1,41.34,26,41.08z"/>
	<path class="st1" d="M11.72,54.46c-0.55,0.19-1.07,0.64-1.39,1.11c-0.19,0.28-0.57,0.92-0.95,1.18c0.51,0.03,0.94-0.1,1.14-0.27
		c-0.11,0.35-0.13,0.86,0.05,1.31c0.25-0.55,0.39-1.01,0.76-1.41c0.35-0.38,0.71-0.6,0.9-0.68C11.87,55.44,11.66,54.86,11.72,54.46z
		"/>
	<path class="st1" d="M32.09,50.19c1.57,0.21,2.54-0.76,2.59-1.82c0.05-1.16-0.87-1.97-2.17-1.95c-2.13,0.03-3.42,1.97-2.4,4.02
		c-1.7-0.17-2.5,0.88-2.5,1.77c0,0.88,0.65,1.77,1.67,1.45c-0.71-0.29-0.58-1.56,0.54-1.58c0.87-0.01,1.26,0.61,1.26,1.61
		c0,1.21-0.94,1.9-2.08,1.9c-1.01,0-1.68-0.59-2.05-1.32c-0.46-0.93-1.02-2.67-2.61-4.17c-0.88,1.04-2.2,2.27-4.92,2.9
		c2.64,0.84,4.43,1.94,5.43,3.89c-1.01,0.96-1.26,2.5-0.65,3.95c0.1,0.49,0.01,1.15-0.22,1.54c0.59-0.21,1.16-0.53,1.62-0.9
		c0.57,0.31,1.18,0.49,2.17,0.72c-0.04,0.3-0.08,0.85-0.09,1.16c-3.25,0.09-5.32,0.84-4.91,2.37c0.69-0.41,1.5-0.71,1.96-0.8
		c-0.61,0.65-0.76,1.26-0.53,1.7c0.82-0.57,1.55-0.95,2.11-1.12c-0.41,0.65-0.39,1.13-0.37,1.65c1.13-0.87,2.16-1.51,3.57-2.01
		c0.41-2.26,1.68-2.98,2.74-2.65c-0.18-0.72-1.06-1.19-1.9-1.14c-0.59-0.87-1.19-1.53-2-1.93c0.18-0.62,0.18-1.66-0.18-2.59
		c1.8,0.19,3.19-0.47,3.93-1.87c0.59-0.27,1.3-0.19,1.59,0.03c0.06-0.57-0.42-1.08-1.3-1.03c0.23-1.9-0.45-2.78-1.35-3.35
		c-0.37-0.98,0.1-2.21,1.15-2.22c0.69-0.01,0.92,0.41,0.9,0.86C33.04,49.7,32.61,50.01,32.09,50.19z"/>
</g>
</svg>
